<svg height="24" viewBox="0 96 960 960" width="24" xmlns="http://www.w3.org/2000/svg"><path d="M336 960q-69.72 0-118.86-49.14T168 792V408q-30 0-51-21.187-21-21.186-21-50.937v-72.125Q96 234 117.15 213q21.15-21 50.85-21h336q29.7 0 50.85 21.187Q576 234.373 576 264.124v72.125Q576 366 554.85 387 533.7 408 504 408v152q-33 20-58.5 48.5T405 672h-69v-72h96v-48h-96v-72h96v-72H240v384q0 40 28 68t68 28q20.25 0 37.125-7.5T403 860q8 17 17 33t21 30q-22 17-48.308 27T336 960Zm0-168v-72h54q-4 18-5 36t1 36h-50ZM168 336h336v-72H168v72Zm0 0v-72 72Zm455.775 528Q664 864 692 836.225q28-27.774 28-68Q720 728 692.225 700q-27.774-28-68-28Q584 672 556 699.775q-28 27.774-28 68Q528 808 555.775 836q27.774 28 68 28ZM813 1008l-98-98q-20 13-43.5 19.5t-47.733 6.5q-69.903 0-118.835-49Q456 838 456 768t49-119q49-49 119-49t119 48.932q49 48.932 49 118.835 0 24.233-6.5 47.733Q779 839 766 859l98 98-51 51Z"/></svg>